Hanif_Shallow_2_5_grf.mot
version=1
nRows=21
nColumns=19
inDegrees=yes
endheader
time	right_ground_force_vx	right_ground_force_vy	right_ground_force_vz	right_ground_force_px	right_ground_force_py	right_ground_force_pz	right_ground_torque_x	right_ground_torque_y	right_ground_torque_z	left_ground_force_vx	left_ground_force_vy	left_ground_force_vz	left_ground_force_px	left_ground_force_py	left_ground_force_pz	left_ground_torque_x	left_ground_torque_y	left_ground_torque_z
0.950000	3.359880	350.729000	24.246300	0.207217	0.000000	-1.440070	-23.105100	2.109650	2.673680	-0.564544	331.839000	-23.466200	0.219174	0.000000	-0.971534	22.747100	-2.396210	6.566710
0.955000	3.533990	348.307000	23.928900	0.206653	0.000000	-1.439140	-23.266000	2.085470	2.455260	-0.146105	331.415000	-23.654000	0.218432	0.000000	-0.971326	22.645500	-2.427950	6.313760
0.960000	3.757860	349.548000	24.256500	0.205896	0.000000	-1.439920	-23.076100	2.155580	2.203270	0.306248	328.822000	-23.603900	0.218713	0.000000	-0.971398	22.488200	-2.392860	6.355170
0.965000	4.344610	347.596000	24.067500	0.205069	0.000000	-1.440600	-22.705600	2.205540	1.903560	0.291058	332.049000	-23.540800	0.218181	0.000000	-0.970419	22.384000	-2.495070	6.242910
0.970000	4.942980	346.995000	24.516500	0.204471	0.000000	-1.439940	-22.893700	2.256980	1.695410	0.161415	328.848000	-23.845300	0.217207	0.000000	-0.971183	22.420500	-2.394590	5.861080
0.975000	5.138260	346.676000	24.356300	0.204505	0.000000	-1.440030	-22.840200	2.331300	1.709570	0.368061	332.320000	-23.891400	0.215856	0.000000	-0.969545	22.111000	-2.499370	5.474340
0.980000	5.400250	347.220000	24.606900	0.203781	0.000000	-1.441120	-22.496600	2.350440	1.461100	0.635713	330.299000	-24.348200	0.216727	0.000000	-0.969442	21.940200	-2.602490	5.743630
0.985000	6.080910	348.839000	25.631600	0.203421	0.000000	-1.441100	-22.603500	2.328660	1.341840	1.193390	331.914000	-25.312400	0.215224	0.000000	-0.968659	21.782800	-2.551980	5.271050
0.990000	6.366820	348.338000	26.213800	0.202687	0.000000	-1.441380	-22.471700	2.484670	1.097270	1.794350	331.192000	-26.296500	0.215646	0.000000	-0.968170	21.568600	-2.519230	5.405300
0.995000	6.999090	349.989000	26.881700	0.201579	0.000000	-1.440920	-22.735100	2.539470	0.715932	1.926750	332.326000	-26.601900	0.214840	0.000000	-0.969177	21.975900	-2.571410	5.158930
1.000000	6.671560	349.794000	28.369900	0.202510	0.000000	-1.440930	-22.718500	2.675590	1.065600	2.968450	332.161000	-27.745900	0.214817	0.000000	-0.968162	21.619500	-2.543660	5.152350
1.005000	7.081090	351.891000	27.949700	0.201775	0.000000	-1.441350	-22.701500	2.769930	0.812249	2.598700	331.270000	-27.686600	0.214627	0.000000	-0.968780	21.768400	-2.638260	5.085500
1.010000	6.476410	351.988000	29.070500	0.201729	0.000000	-1.441550	-22.647200	2.542010	0.788104	2.504260	330.481000	-27.961300	0.214385	0.000000	-0.968829	21.733300	-2.671870	5.000060
1.015000	7.311580	353.004000	28.945900	0.202125	0.000000	-1.441710	-22.646200	2.694430	0.937463	2.335120	333.070000	-27.868100	0.213890	0.000000	-0.967665	21.517100	-2.729250	4.874510
1.020000	7.372370	352.464000	30.084300	0.202499	0.000000	-1.440710	-22.963100	2.743360	1.080280	2.866360	331.547000	-27.818100	0.214387	0.000000	-0.968986	21.852200	-2.707900	5.014990
1.025000	7.355720	353.535000	30.271800	0.201430	0.000000	-1.441680	-22.690200	2.726480	0.702340	3.214130	334.072000	-28.170100	0.214699	0.000000	-0.969348	22.137200	-2.687150	5.154190
1.030000	7.539300	354.116000	30.593400	0.202017	0.000000	-1.441100	-22.931600	2.832750	0.922014	2.873850	333.555000	-28.283400	0.215099	0.000000	-0.969002	21.989800	-2.743370	5.289260
1.035000	7.914980	355.538000	31.635900	0.201821	0.000000	-1.441700	-22.807600	2.856940	0.861316	3.332980	335.459000	-29.176700	0.214503	0.000000	-0.968123	21.816200	-2.791660	5.125810
1.040000	8.198970	355.692000	32.261400	0.202033	0.000000	-1.441480	-22.891700	2.910650	0.944919	3.250820	332.646000	-29.970500	0.215572	0.000000	-0.969315	22.029700	-2.806260	5.455480
1.045000	8.338040	356.313000	32.778300	0.202518	0.000000	-1.441850	-22.802300	2.871810	1.119870	3.123730	333.651000	-30.143900	0.215535	0.000000	-0.968372	21.781800	-2.905480	5.469750
1.050000	8.429180	358.600000	33.664700	0.202682	0.000000	-1.441790	-22.965700	3.056210	1.206210	2.427500	335.019000	-30.385400	0.215247	0.000000	-0.968954	22.072800	-2.857690	5.394670
